<?xml version="1.0" encoding="utf-8" standalone="no"?>
<!DOCTYPE svg PUBLIC "-//W3C//DTD SVG 1.1//EN"
  "http://www.w3.org/Graphics/SVG/1.1/DTD/svg11.dtd">
<!-- Created with matplotlib (https://matplotlib.org/) -->
<svg height="288pt" version="1.1" viewBox="0 0 432 288" width="432pt" xmlns="http://www.w3.org/2000/svg" xmlns:xlink="http://www.w3.org/1999/xlink">
 <metadata>
  <rdf:RDF xmlns:cc="http://creativecommons.org/ns#" xmlns:dc="http://purl.org/dc/elements/1.1/" xmlns:rdf="http://www.w3.org/1999/02/22-rdf-syntax-ns#">
   <cc:Work>
    <dc:type rdf:resource="http://purl.org/dc/dcmitype/StillImage"/>
    <dc:date>2022-07-16T15:30:18.978014</dc:date>
    <dc:format>image/svg+xml</dc:format>
    <dc:creator>
     <cc:Agent>
      <dc:title>Matplotlib v3.3.2, https://matplotlib.org/</dc:title>
     </cc:Agent>
    </dc:creator>
   </cc:Work>
  </rdf:RDF>
 </metadata>
 <defs>
  <style type="text/css">*{stroke-linecap:butt;stroke-linejoin:round;}</style>
 </defs>
 <g id="figure_1">
  <g id="patch_1">
   <path d="M 0 288 
L 432 288 
L 432 0 
L 0 0 
z
" style="fill:none;"/>
  </g>
  <g id="axes_1">
   <g id="patch_2">
    <path d="M 54 252 
L 388.8 252 
L 388.8 34.56 
L 54 34.56 
z
" style="fill:#ffffff;"/>
   </g>
   <g id="patch_3">
    <path clip-path="url(#p19f91c09c9)" d="M 69.218182 252 
L 74.752066 252 
L 74.752066 44.914286 
L 69.218182 44.914286 
z
" style="fill:#008000;opacity:0.75;"/>
   </g>
   <g id="patch_4">
    <path clip-path="url(#p19f91c09c9)" d="M 74.752066 252 
L 80.28595 252 
L 80.28595 252 
L 74.752066 252 
z
" style="fill:#008000;opacity:0.75;"/>
   </g>
   <g id="patch_5">
    <path clip-path="url(#p19f91c09c9)" d="M 80.28595 252 
L 85.819835 252 
L 85.819835 163.24898 
L 80.28595 163.24898 
z
" style="fill:#008000;opacity:0.75;"/>
   </g>
   <g id="patch_6">
    <path clip-path="url(#p19f91c09c9)" d="M 85.819835 252 
L 91.353719 252 
L 91.353719 252 
L 85.819835 252 
z
" style="fill:#008000;opacity:0.75;"/>
   </g>
   <g id="patch_7">
    <path clip-path="url(#p19f91c09c9)" d="M 91.353719 252 
L 96.887603 252 
L 96.887603 252 
L 91.353719 252 
z
" style="fill:#008000;opacity:0.75;"/>
   </g>
   <g id="patch_8">
    <path clip-path="url(#p19f91c09c9)" d="M 96.887603 252 
L 102.421488 252 
L 102.421488 133.665306 
L 96.887603 133.665306 
z
" style="fill:#008000;opacity:0.75;"/>
   </g>
   <g id="patch_9">
    <path clip-path="url(#p19f91c09c9)" d="M 102.421488 252 
L 107.955372 252 
L 107.955372 252 
L 102.421488 252 
z
" style="fill:#008000;opacity:0.75;"/>
   </g>
   <g id="patch_10">
    <path clip-path="url(#p19f91c09c9)" d="M 107.955372 252 
L 113.489256 252 
L 113.489256 141.061224 
L 107.955372 141.061224 
z
" style="fill:#008000;opacity:0.75;"/>
   </g>
   <g id="patch_11">
    <path clip-path="url(#p19f91c09c9)" d="M 113.489256 252 
L 119.02314 252 
L 119.02314 252 
L 113.489256 252 
z
" style="fill:#008000;opacity:0.75;"/>
   </g>
   <g id="patch_12">
    <path clip-path="url(#p19f91c09c9)" d="M 119.02314 252 
L 124.557025 252 
L 124.557025 252 
L 119.02314 252 
z
" style="fill:#008000;opacity:0.75;"/>
   </g>
   <g id="patch_13">
    <path clip-path="url(#p19f91c09c9)" d="M 124.557025 252 
L 130.090909 252 
L 130.090909 200.228571 
L 124.557025 200.228571 
z
" style="fill:#008000;opacity:0.75;"/>
   </g>
   <g id="patch_14">
    <path clip-path="url(#p19f91c09c9)" d="M 130.090909 252 
L 135.624793 252 
L 135.624793 252 
L 130.090909 252 
z
" style="fill:#008000;opacity:0.75;"/>
   </g>
   <g id="patch_15">
    <path clip-path="url(#p19f91c09c9)" d="M 135.624793 252 
L 141.158678 252 
L 141.158678 170.644898 
L 135.624793 170.644898 
z
" style="fill:#008000;opacity:0.75;"/>
   </g>
   <g id="patch_16">
    <path clip-path="url(#p19f91c09c9)" d="M 141.158678 252 
L 146.692562 252 
L 146.692562 252 
L 141.158678 252 
z
" style="fill:#008000;opacity:0.75;"/>
   </g>
   <g id="patch_17">
    <path clip-path="url(#p19f91c09c9)" d="M 146.692562 252 
L 152.226446 252 
L 152.226446 252 
L 146.692562 252 
z
" style="fill:#008000;opacity:0.75;"/>
   </g>
   <g id="patch_18">
    <path clip-path="url(#p19f91c09c9)" d="M 152.226446 252 
L 157.760331 252 
L 157.760331 215.020408 
L 152.226446 215.020408 
z
" style="fill:#008000;opacity:0.75;"/>
   </g>
   <g id="patch_19">
    <path clip-path="url(#p19f91c09c9)" d="M 157.760331 252 
L 163.294215 252 
L 163.294215 252 
L 157.760331 252 
z
" style="fill:#008000;opacity:0.75;"/>
   </g>
   <g id="patch_20">
    <path clip-path="url(#p19f91c09c9)" d="M 163.294215 252 
L 168.828099 252 
L 168.828099 133.665306 
L 163.294215 133.665306 
z
" style="fill:#008000;opacity:0.75;"/>
   </g>
   <g id="patch_21">
    <path clip-path="url(#p19f91c09c9)" d="M 168.828099 252 
L 174.361983 252 
L 174.361983 252 
L 168.828099 252 
z
" style="fill:#008000;opacity:0.75;"/>
   </g>
   <g id="patch_22">
    <path clip-path="url(#p19f91c09c9)" d="M 174.361983 252 
L 179.895868 252 
L 179.895868 252 
L 174.361983 252 
z
" style="fill:#008000;opacity:0.75;"/>
   </g>
   <g id="patch_23">
    <path clip-path="url(#p19f91c09c9)" d="M 179.895868 252 
L 185.429752 252 
L 185.429752 207.62449 
L 179.895868 207.62449 
z
" style="fill:#008000;opacity:0.75;"/>
   </g>
   <g id="patch_24">
    <path clip-path="url(#p19f91c09c9)" d="M 185.429752 252 
L 190.963636 252 
L 190.963636 252 
L 185.429752 252 
z
" style="fill:#008000;opacity:0.75;"/>
   </g>
   <g id="patch_25">
    <path clip-path="url(#p19f91c09c9)" d="M 190.963636 252 
L 196.497521 252 
L 196.497521 200.228571 
L 190.963636 200.228571 
z
" style="fill:#008000;opacity:0.75;"/>
   </g>
   <g id="patch_26">
    <path clip-path="url(#p19f91c09c9)" d="M 196.497521 252 
L 202.031405 252 
L 202.031405 252 
L 196.497521 252 
z
" style="fill:#008000;opacity:0.75;"/>
   </g>
   <g id="patch_27">
    <path clip-path="url(#p19f91c09c9)" d="M 202.031405 252 
L 207.565289 252 
L 207.565289 252 
L 202.031405 252 
z
" style="fill:#008000;opacity:0.75;"/>
   </g>
   <g id="patch_28">
    <path clip-path="url(#p19f91c09c9)" d="M 207.565289 252 
L 213.099174 252 
L 213.099174 207.62449 
L 207.565289 207.62449 
z
" style="fill:#008000;opacity:0.75;"/>
   </g>
   <g id="patch_29">
    <path clip-path="url(#p19f91c09c9)" d="M 213.099174 252 
L 218.633058 252 
L 218.633058 252 
L 213.099174 252 
z
" style="fill:#008000;opacity:0.75;"/>
   </g>
   <g id="patch_30">
    <path clip-path="url(#p19f91c09c9)" d="M 218.633058 252 
L 224.166942 252 
L 224.166942 229.812245 
L 218.633058 229.812245 
z
" style="fill:#008000;opacity:0.75;"/>
   </g>
   <g id="patch_31">
    <path clip-path="url(#p19f91c09c9)" d="M 224.166942 252 
L 229.700826 252 
L 229.700826 252 
L 224.166942 252 
z
" style="fill:#008000;opacity:0.75;"/>
   </g>
   <g id="patch_32">
    <path clip-path="url(#p19f91c09c9)" d="M 229.700826 252 
L 235.234711 252 
L 235.234711 252 
L 229.700826 252 
z
" style="fill:#008000;opacity:0.75;"/>
   </g>
   <g id="patch_33">
    <path clip-path="url(#p19f91c09c9)" d="M 235.234711 252 
L 240.768595 252 
L 240.768595 200.228571 
L 235.234711 200.228571 
z
" style="fill:#008000;opacity:0.75;"/>
   </g>
   <g id="patch_34">
    <path clip-path="url(#p19f91c09c9)" d="M 240.768595 252 
L 246.302479 252 
L 246.302479 252 
L 240.768595 252 
z
" style="fill:#008000;opacity:0.75;"/>
   </g>
   <g id="patch_35">
    <path clip-path="url(#p19f91c09c9)" d="M 246.302479 252 
L 251.836364 252 
L 251.836364 222.416327 
L 246.302479 222.416327 
z
" style="fill:#008000;opacity:0.75;"/>
   </g>
   <g id="patch_36">
    <path clip-path="url(#p19f91c09c9)" d="M 251.836364 252 
L 257.370248 252 
L 257.370248 252 
L 251.836364 252 
z
" style="fill:#008000;opacity:0.75;"/>
   </g>
   <g id="patch_37">
    <path clip-path="url(#p19f91c09c9)" d="M 257.370248 252 
L 262.904132 252 
L 262.904132 252 
L 257.370248 252 
z
" style="fill:#008000;opacity:0.75;"/>
   </g>
   <g id="patch_38">
    <path clip-path="url(#p19f91c09c9)" d="M 262.904132 252 
L 268.438017 252 
L 268.438017 244.604082 
L 262.904132 244.604082 
z
" style="fill:#008000;opacity:0.75;"/>
   </g>
   <g id="patch_39">
    <path clip-path="url(#p19f91c09c9)" d="M 268.438017 252 
L 273.971901 252 
L 273.971901 252 
L 268.438017 252 
z
" style="fill:#008000;opacity:0.75;"/>
   </g>
   <g id="patch_40">
    <path clip-path="url(#p19f91c09c9)" d="M 273.971901 252 
L 279.505785 252 
L 279.505785 222.416327 
L 273.971901 222.416327 
z
" style="fill:#008000;opacity:0.75;"/>
   </g>
   <g id="patch_41">
    <path clip-path="url(#p19f91c09c9)" d="M 279.505785 252 
L 285.039669 252 
L 285.039669 252 
L 279.505785 252 
z
" style="fill:#008000;opacity:0.75;"/>
   </g>
   <g id="patch_42">
    <path clip-path="url(#p19f91c09c9)" d="M 285.039669 252 
L 290.573554 252 
L 290.573554 252 
L 285.039669 252 
z
" style="fill:#008000;opacity:0.75;"/>
   </g>
   <g id="patch_43">
    <path clip-path="url(#p19f91c09c9)" d="M 290.573554 252 
L 296.107438 252 
L 296.107438 215.020408 
L 290.573554 215.020408 
z
" style="fill:#008000;opacity:0.75;"/>
   </g>
   <g id="patch_44">
    <path clip-path="url(#p19f91c09c9)" d="M 296.107438 252 
L 301.641322 252 
L 301.641322 252 
L 296.107438 252 
z
" style="fill:#008000;opacity:0.75;"/>
   </g>
   <g id="patch_45">
    <path clip-path="url(#p19f91c09c9)" d="M 301.641322 252 
L 307.175207 252 
L 307.175207 215.020408 
L 301.641322 215.020408 
z
" style="fill:#008000;opacity:0.75;"/>
   </g>
   <g id="patch_46">
    <path clip-path="url(#p19f91c09c9)" d="M 307.175207 252 
L 312.709091 252 
L 312.709091 252 
L 307.175207 252 
z
" style="fill:#008000;opacity:0.75;"/>
   </g>
   <g id="patch_47">
    <path clip-path="url(#p19f91c09c9)" d="M 312.709091 252 
L 318.242975 252 
L 318.242975 252 
L 312.709091 252 
z
" style="fill:#008000;opacity:0.75;"/>
   </g>
   <g id="patch_48">
    <path clip-path="url(#p19f91c09c9)" d="M 318.242975 252 
L 323.77686 252 
L 323.77686 229.812245 
L 318.242975 229.812245 
z
" style="fill:#008000;opacity:0.75;"/>
   </g>
   <g id="patch_49">
    <path clip-path="url(#p19f91c09c9)" d="M 323.77686 252 
L 329.310744 252 
L 329.310744 252 
L 323.77686 252 
z
" style="fill:#008000;opacity:0.75;"/>
   </g>
   <g id="patch_50">
    <path clip-path="url(#p19f91c09c9)" d="M 329.310744 252 
L 334.844628 252 
L 334.844628 222.416327 
L 329.310744 222.416327 
z
" style="fill:#008000;opacity:0.75;"/>
   </g>
   <g id="patch_51">
    <path clip-path="url(#p19f91c09c9)" d="M 334.844628 252 
L 340.378512 252 
L 340.378512 252 
L 334.844628 252 
z
" style="fill:#008000;opacity:0.75;"/>
   </g>
   <g id="patch_52">
    <path clip-path="url(#p19f91c09c9)" d="M 340.378512 252 
L 345.912397 252 
L 345.912397 252 
L 340.378512 252 
z
" style="fill:#008000;opacity:0.75;"/>
   </g>
   <g id="patch_53">
    <path clip-path="url(#p19f91c09c9)" d="M 345.912397 252 
L 351.446281 252 
L 351.446281 237.208163 
L 345.912397 237.208163 
z
" style="fill:#008000;opacity:0.75;"/>
   </g>
   <g id="patch_54">
    <path clip-path="url(#p19f91c09c9)" d="M 351.446281 252 
L 356.980165 252 
L 356.980165 252 
L 351.446281 252 
z
" style="fill:#008000;opacity:0.75;"/>
   </g>
   <g id="patch_55">
    <path clip-path="url(#p19f91c09c9)" d="M 356.980165 252 
L 362.51405 252 
L 362.51405 252 
L 356.980165 252 
z
" style="fill:#008000;opacity:0.75;"/>
   </g>
   <g id="patch_56">
    <path clip-path="url(#p19f91c09c9)" d="M 362.51405 252 
L 368.047934 252 
L 368.047934 252 
L 362.51405 252 
z
" style="fill:#008000;opacity:0.75;"/>
   </g>
   <g id="patch_57">
    <path clip-path="url(#p19f91c09c9)" d="M 368.047934 252 
L 373.581818 252 
L 373.581818 237.208163 
L 368.047934 237.208163 
z
" style="fill:#008000;opacity:0.75;"/>
   </g>
   <g id="matplotlib.axis_1">
    <g id="xtick_1">
     <g id="line2d_1">
      <path clip-path="url(#p19f91c09c9)" d="M 69.218182 252 
L 69.218182 34.56 
" style="fill:none;stroke:#b0b0b0;stroke-linecap:square;stroke-width:0.8;"/>
     </g>
     <g id="line2d_2">
      <defs>
       <path d="M 0 0 
L 0 3.5 
" id="md3588d7fcf" style="stroke:#000000;stroke-width:0.8;"/>
      </defs>
      <g>
       <use style="stroke:#000000;stroke-width:0.8;" x="69.218182" xlink:href="#md3588d7fcf" y="252"/>
      </g>
     </g>
     <g id="text_1">
      <!-- 0 -->
      <g transform="translate(65.803938 268.685876)scale(0.14 -0.14)">
       <defs>
        <path d="M 42 31.84375 
C 42 37.96875 41.90625 48.421875 37.703125 56.453125 
C 34 63.484375 28.09375 66 22.90625 66 
C 18.09375 66 12 63.78125 8.203125 56.5625 
C 4.203125 49.015625 3.796875 39.671875 3.796875 31.84375 
C 3.796875 26.109375 3.90625 17.375 7 9.734375 
C 11.296875 -0.609375 19 -2 22.90625 -2 
C 27.5 -2 34.5 -0.109375 38.59375 9.4375 
C 41.59375 16.375 42 24.5 42 31.84375 
z
M 22.90625 -0.40625 
C 16.5 -0.40625 12.703125 5.125 11.296875 12.75 
C 10.203125 18.6875 10.203125 27.328125 10.203125 32.953125 
C 10.203125 40.6875 10.203125 47.109375 11.5 53.234375 
C 13.40625 61.78125 19 64.390625 22.90625 64.390625 
C 27 64.390625 32.296875 61.671875 34.203125 53.4375 
C 35.5 47.71875 35.59375 40.984375 35.59375 32.953125 
C 35.59375 26.421875 35.59375 18.375 34.40625 12.453125 
C 32.296875 1.5 26.40625 -0.40625 22.90625 -0.40625 
z
" id="CMR17-48"/>
       </defs>
       <use transform="scale(0.996264)" xlink:href="#CMR17-48"/>
      </g>
     </g>
    </g>
    <g id="xtick_2">
     <g id="line2d_3">
      <path clip-path="url(#p19f91c09c9)" d="M 138.391736 252 
L 138.391736 34.56 
" style="fill:none;stroke:#b0b0b0;stroke-linecap:square;stroke-width:0.8;"/>
     </g>
     <g id="line2d_4">
      <g>
       <use style="stroke:#000000;stroke-width:0.8;" x="138.391736" xlink:href="#md3588d7fcf" y="252"/>
      </g>
     </g>
     <g id="text_2">
      <!-- 5 -->
      <g transform="translate(134.977491 268.685876)scale(0.14 -0.14)">
       <defs>
        <path d="M 11.40625 58.59375 
C 12.40625 58.1875 16.5 56.890625 20.703125 56.890625 
C 30 56.890625 35.09375 61.890625 38 64.6875 
C 38 65.484375 38 66 37.40625 66 
C 37.296875 66 37.09375 66 36.296875 65.59375 
C 32.796875 64.09375 28.703125 63 23.703125 63 
C 20.703125 63 16.203125 63.359375 11.296875 65.484375 
C 10.203125 66 10 66 9.90625 66 
C 9.40625 66 9.296875 65.890625 9.296875 63.90625 
L 9.296875 34.859375 
C 9.296875 33.015625 9.296875 32.5 10.296875 32.5 
C 10.796875 32.5 11 32.703125 11.5 33.421875 
C 14.703125 38.046875 19.09375 40 24.09375 40 
C 27.59375 40 35.09375 37.734375 35.09375 20.203125 
C 35.09375 16.984375 35.09375 11.1875 32.09375 6.59375 
C 29.59375 2.484375 25.703125 0.390625 21.40625 0.390625 
C 14.796875 0.390625 8.09375 4.984375 6.296875 12.6875 
C 6.703125 12.59375 7.5 12.390625 7.90625 12.390625 
C 9.203125 12.390625 11.703125 13.09375 11.703125 16.1875 
C 11.703125 18.890625 9.796875 20 7.90625 20 
C 5.59375 20 4.09375 18.59375 4.09375 15.796875 
C 4.09375 7.09375 11 -2 21.59375 -2 
C 31.90625 -2 41.703125 6.890625 41.703125 19.796875 
C 41.703125 32.09375 33.90625 41.59375 24.203125 41.59375 
C 19.09375 41.59375 14.796875 39.6875 11.40625 36 
z
" id="CMR17-53"/>
       </defs>
       <use transform="scale(0.996264)" xlink:href="#CMR17-53"/>
      </g>
     </g>
    </g>
    <g id="xtick_3">
     <g id="line2d_5">
      <path clip-path="url(#p19f91c09c9)" d="M 207.565289 252 
L 207.565289 34.56 
" style="fill:none;stroke:#b0b0b0;stroke-linecap:square;stroke-width:0.8;"/>
     </g>
     <g id="line2d_6">
      <g>
       <use style="stroke:#000000;stroke-width:0.8;" x="207.565289" xlink:href="#md3588d7fcf" y="252"/>
      </g>
     </g>
     <g id="text_3">
      <!-- 10 -->
      <g transform="translate(200.736801 268.685876)scale(0.14 -0.14)">
       <defs>
        <path d="M 26.59375 63.796875 
C 26.59375 65.890625 26.5 66 25.09375 66 
C 21.203125 61.359375 15.296875 59.890625 9.703125 59.6875 
C 9.40625 59.6875 8.90625 59.6875 8.796875 59.5 
C 8.703125 59.296875 8.703125 59.09375 8.703125 57 
C 11.796875 57 17 57.59375 21 59.984375 
L 21 7.296875 
C 21 3.796875 20.796875 2.59375 12.203125 2.59375 
L 9.203125 2.59375 
L 9.203125 0 
C 14 0.09375 19 0.1875 23.796875 0.1875 
C 28.59375 0.1875 33.59375 0.09375 38.40625 0 
L 38.40625 2.59375 
L 35.40625 2.59375 
C 26.796875 2.59375 26.59375 3.6875 26.59375 7.296875 
z
" id="CMR17-49"/>
       </defs>
       <use transform="scale(0.996264)" xlink:href="#CMR17-49"/>
       <use transform="translate(45.690477 0)scale(0.996264)" xlink:href="#CMR17-48"/>
      </g>
     </g>
    </g>
    <g id="xtick_4">
     <g id="line2d_7">
      <path clip-path="url(#p19f91c09c9)" d="M 276.738843 252 
L 276.738843 34.56 
" style="fill:none;stroke:#b0b0b0;stroke-linecap:square;stroke-width:0.8;"/>
     </g>
     <g id="line2d_8">
      <g>
       <use style="stroke:#000000;stroke-width:0.8;" x="276.738843" xlink:href="#md3588d7fcf" y="252"/>
      </g>
     </g>
     <g id="text_4">
      <!-- 15 -->
      <g transform="translate(269.910354 268.685876)scale(0.14 -0.14)">
       <use transform="scale(0.996264)" xlink:href="#CMR17-49"/>
       <use transform="translate(45.690477 0)scale(0.996264)" xlink:href="#CMR17-53"/>
      </g>
     </g>
    </g>
    <g id="xtick_5">
     <g id="line2d_9">
      <path clip-path="url(#p19f91c09c9)" d="M 345.912397 252 
L 345.912397 34.56 
" style="fill:none;stroke:#b0b0b0;stroke-linecap:square;stroke-width:0.8;"/>
     </g>
     <g id="line2d_10">
      <g>
       <use style="stroke:#000000;stroke-width:0.8;" x="345.912397" xlink:href="#md3588d7fcf" y="252"/>
      </g>
     </g>
     <g id="text_5">
      <!-- 20 -->
      <g transform="translate(339.083908 268.685876)scale(0.14 -0.14)">
       <defs>
        <path d="M 41.703125 15.46875 
L 39.90625 15.46875 
C 38.90625 8.390625 38.09375 7.1875 37.703125 6.59375 
C 37.203125 5.796875 30 5.796875 28.59375 5.796875 
L 9.40625 5.796875 
C 13 9.6875 20 16.765625 28.5 24.9375 
C 34.59375 30.71875 41.703125 37.5 41.703125 47.390625 
C 41.703125 59.1875 32.296875 66 21.796875 66 
C 10.796875 66 4.09375 56.296875 4.09375 47.296875 
C 4.09375 43.390625 7 42.890625 8.203125 42.890625 
C 9.203125 42.890625 12.203125 43.484375 12.203125 46.984375 
C 12.203125 50.09375 9.59375 51 8.203125 51 
C 7.59375 51 7 50.890625 6.59375 50.6875 
C 8.5 59.1875 14.296875 63.390625 20.40625 63.390625 
C 29.09375 63.390625 34.796875 56.5 34.796875 47.390625 
C 34.796875 38.703125 29.703125 31.21875 24 24.734375 
L 4.09375 2.296875 
L 4.09375 0 
L 39.296875 0 
z
" id="CMR17-50"/>
       </defs>
       <use transform="scale(0.996264)" xlink:href="#CMR17-50"/>
       <use transform="translate(45.690477 0)scale(0.996264)" xlink:href="#CMR17-48"/>
      </g>
     </g>
    </g>
    <g id="text_6">
     <!-- PHQ-Wert -->
     <g transform="translate(184.663122 286.467493)scale(0.16 -0.16)">
      <defs>
       <path d="M 19.796875 32 
L 35.796875 32 
C 48.703125 32 58.09375 40.359375 58.09375 49.796875 
C 58.09375 59.234375 48.90625 68 35.796875 68 
L 5.203125 68 
L 5.203125 65.390625 
C 12.09375 65.390625 13.203125 65.390625 13.203125 60.921875 
L 13.203125 7.078125 
C 13.203125 2.59375 12.09375 2.59375 5.203125 2.59375 
L 5.203125 0 
C 8.09375 0.1875 13.40625 0.1875 16.5 0.1875 
C 19.59375 0.1875 24.90625 0.1875 27.796875 0 
L 27.796875 2.59375 
C 20.90625 2.59375 19.796875 2.59375 19.796875 7.078125 
z
M 19.59375 34.09375 
L 19.59375 61.515625 
C 19.59375 64.890625 19.796875 65.390625 23.796875 65.390625 
L 33.90625 65.390625 
C 46.796875 65.390625 50.5 58.046875 50.5 49.796875 
C 50.5 40.75 46.09375 34.09375 33.90625 34.09375 
z
" id="CMR17-80"/>
       <path d="M 56.09375 60.90625 
C 56.09375 65.390625 57.203125 65.390625 64.09375 65.390625 
L 64.09375 68 
C 61.203125 67.796875 55.90625 67.796875 52.796875 67.796875 
C 49.703125 67.796875 44.40625 67.796875 41.5 68 
L 41.5 65.390625 
C 48.40625 65.390625 49.5 65.390625 49.5 60.90625 
L 49.5 36.59375 
L 19.703125 36.59375 
L 19.703125 60.90625 
C 19.703125 65.390625 20.796875 65.390625 27.703125 65.390625 
L 27.703125 68 
C 24.796875 67.796875 19.5 67.796875 16.40625 67.796875 
C 13.296875 67.796875 8 67.796875 5.09375 68 
L 5.09375 65.390625 
C 12 65.390625 13.09375 65.390625 13.09375 60.90625 
L 13.09375 7.0625 
C 13.09375 2.59375 12 2.59375 5.09375 2.59375 
L 5.09375 0 
C 8 0.1875 13.296875 0.1875 16.40625 0.1875 
C 19.5 0.1875 24.796875 0.1875 27.703125 0 
L 27.703125 2.59375 
C 20.796875 2.59375 19.703125 2.59375 19.703125 7.0625 
L 19.703125 34 
L 49.5 34 
L 49.5 7.0625 
C 49.5 2.59375 48.40625 2.59375 41.5 2.59375 
L 41.5 0 
C 44.40625 0.1875 49.703125 0.1875 52.796875 0.1875 
C 55.90625 0.1875 61.203125 0.1875 64.09375 0 
L 64.09375 2.59375 
C 57.203125 2.59375 56.09375 2.59375 56.09375 7.0625 
z
" id="CMR17-72"/>
       <path d="M 47.296875 0.484375 
C 59.203125 5.546875 67.296875 18.546875 67.296875 33.703125 
C 67.296875 54.4375 52.59375 70 36 70 
C 19 70 4.59375 54.234375 4.59375 33.703125 
C 4.59375 13.484375 19 -2 36 -2 
C 38.296875 -2 41.5 -1.703125 45.296875 -0.40625 
C 47 -12.703125 48.09375 -20 56.703125 -20 
C 67.296875 -20 67.796875 -4.328125 67.796875 -1.5 
C 67.796875 -0.5 67.796875 0.1875 67.09375 0.1875 
C 66.59375 0.1875 66.5 -0.5 66.5 -0.703125 
C 65.796875 -10.390625 60.40625 -12.40625 57.203125 -12.40625 
C 51.296875 -12.40625 49.203125 -7.0625 47.296875 0.484375 
z
M 30.59375 0.59375 
C 20.203125 3.859375 12 14.90625 12 33.703125 
C 12 57.78125 25.09375 68.1875 35.90625 68.1875 
C 47.09375 68.1875 59.90625 57.375 59.90625 33.703125 
C 59.90625 16.625 53.203125 7.234375 46.5 2.96875 
C 45 8.03125 42.59375 14 36.09375 14 
C 31.296875 14 28.59375 9.8125 28.59375 6.046875 
C 28.59375 3.765625 29.5 1.875 30.59375 0.59375 
z
M 44.90625 2.078125 
C 40.90625 -0.015625 37.703125 -0.203125 36 -0.203125 
C 31.5 -0.203125 30.203125 3.859375 30.203125 6.046875 
C 30.203125 9.125 32.296875 12.390625 36.09375 12.390625 
C 42.5 12.390625 44.09375 6.734375 44.90625 2.078125 
z
" id="CMR17-81"/>
       <path d="M 25.5 19.59375 
L 25.5 24 
L 0.40625 24 
L 0.40625 19.59375 
z
" id="CMR17-45"/>
       <path d="M 86.296875 58.984375 
C 87.203125 61.6875 88.703125 65.203125 94.5 65.390625 
L 94.5 68 
C 92.796875 67.890625 89.296875 67.796875 87.5 67.796875 
C 85 67.796875 80.59375 67.796875 78.203125 68 
L 78.203125 65.390625 
C 82.703125 65.296875 84.59375 62.796875 84.59375 60.390625 
C 84.59375 59.6875 84.5 59.28125 84.09375 58.1875 
L 68.59375 8.703125 
L 52.296875 60.78125 
C 52 61.796875 51.90625 62.1875 51.90625 62.59375 
C 51.90625 65.390625 56.296875 65.390625 58.203125 65.390625 
L 58.203125 68 
C 55.296875 67.796875 50.296875 67.796875 47.203125 67.796875 
C 44.703125 67.796875 40.203125 67.796875 37.90625 68 
L 37.90625 65.390625 
C 42.5 65.390625 43.703125 65.09375 44.703125 63.296875 
C 45.09375 62.390625 46.703125 57.1875 46.703125 56.875 
C 46.703125 56.484375 46.5 55.875 46.40625 55.578125 
L 31.703125 8.8125 
L 15.40625 60.78125 
C 14.90625 62.1875 14.90625 62.390625 14.90625 62.59375 
C 14.90625 65.390625 19.296875 65.390625 21.296875 65.390625 
L 21.296875 68 
C 18.40625 67.796875 13.40625 67.796875 10.296875 67.796875 
C 7.703125 67.796875 3.296875 67.796875 0.90625 68 
L 0.90625 65.390625 
C 6.90625 65.390625 7.296875 64.796875 8.296875 61.59375 
L 27.796875 -0.3125 
C 28.296875 -1.8125 28.296875 -2 29.203125 -2 
C 30 -2 30.296875 -1.8125 30.703125 -0.40625 
L 47.703125 53.875 
L 64.703125 -0.40625 
C 65.09375 -1.8125 65.40625 -2 66.203125 -2 
C 67.09375 -2 67.09375 -1.8125 67.59375 -0.3125 
z
" id="CMR17-87"/>
       <path d="M 38.09375 23.484375 
C 38.5 23.890625 38.5 24.09375 38.5 25.09375 
C 38.5 35.171875 33.09375 44 21.703125 44 
C 11.09375 44 2.703125 33.984375 2.703125 21.78125 
C 2.703125 8.65625 12.203125 -1 22.796875 -1 
C 34 -1 38.40625 9.671875 38.40625 11.796875 
C 38.40625 12.5 37.796875 12.5 37.59375 12.5 
C 36.90625 12.5 36.796875 12.296875 36.40625 11.078125 
C 34.203125 4.21875 28.703125 0.796875 23.5 0.796875 
C 19.203125 0.796875 14.90625 3.21875 12.203125 7.65625 
C 9.09375 12.796875 9.09375 18.75 9.09375 23.484375 
z
M 9.203125 25 
C 9.90625 39.234375 17.59375 42.390625 21.59375 42.390625 
C 28.40625 42.390625 33 36.0625 33.09375 25 
z
" id="CMR17-101"/>
       <path d="M 15 23.703125 
C 15 33.34375 19.09375 42.390625 26.59375 42.390625 
C 27.296875 42.390625 28 42.296875 28.703125 41.984375 
C 28.703125 41.984375 26.5 41.28125 26.5 38.671875 
C 26.5 36.265625 28.40625 35.265625 29.90625 35.265625 
C 31.09375 35.265625 33.296875 35.96875 33.296875 38.78125 
C 33.296875 41.984375 30.09375 44 26.703125 44 
C 19.09375 44 15.796875 36.5625 14.796875 33.046875 
L 14.703125 33.046875 
L 14.703125 44 
L 3.09375 42.890625 
L 3.09375 40.28125 
C 9 40.28125 9.90625 39.6875 9.90625 34.859375 
L 9.90625 6.921875 
C 9.90625 3.09375 9.5 2.59375 3.09375 2.59375 
L 3.09375 0 
C 5.5 0.1875 10.09375 0.1875 12.703125 0.1875 
C 15.59375 0.1875 20.703125 0.1875 23.40625 0 
L 23.40625 2.59375 
C 16.203125 2.59375 15 2.59375 15 7.109375 
z
" id="CMR17-114"/>
       <path d="M 15.09375 40.390625 
L 29.09375 40.390625 
L 29.09375 43 
L 15.09375 43 
L 15.09375 62 
L 13.296875 62 
C 13.09375 51.4375 9.59375 42.1875 1.09375 41.984375 
L 1.09375 40.390625 
L 9.796875 40.390625 
L 9.796875 12.15625 
C 9.796875 10.234375 9.796875 -1 21.40625 -1 
C 27.296875 -1 30.703125 4.8125 30.703125 12.25 
L 30.703125 17.984375 
L 28.90625 17.984375 
L 28.90625 12.34375 
C 28.90625 5.421875 26.203125 0.796875 22 0.796875 
C 19.09375 0.796875 15.09375 2.796875 15.09375 11.953125 
z
" id="CMR17-116"/>
      </defs>
      <use transform="scale(0.996264)" xlink:href="#CMR17-80"/>
      <use transform="translate(62.586301 0)scale(0.996264)" xlink:href="#CMR17-72"/>
      <use transform="translate(131.65873 0)scale(0.996264)" xlink:href="#CMR17-81"/>
      <use transform="translate(203.373519 0)scale(0.996264)" xlink:href="#CMR17-45"/>
      <use transform="translate(233.449485 0)scale(0.996264)" xlink:href="#CMR17-87"/>
      <use transform="translate(320.73888 0)scale(0.996264)" xlink:href="#CMR17-101"/>
      <use transform="translate(361.22454 0)scale(0.996264)" xlink:href="#CMR17-114"/>
      <use transform="translate(396.505308 0)scale(0.996264)" xlink:href="#CMR17-116"/>
     </g>
    </g>
   </g>
   <g id="matplotlib.axis_2">
    <g id="ytick_1">
     <g id="line2d_11">
      <path clip-path="url(#p19f91c09c9)" d="M 54 252 
L 388.8 252 
" style="fill:none;stroke:#b0b0b0;stroke-linecap:square;stroke-width:0.8;"/>
     </g>
     <g id="line2d_12">
      <defs>
       <path d="M 0 0 
L -3.5 0 
" id="m9af1ebaad5" style="stroke:#000000;stroke-width:0.8;"/>
      </defs>
      <g>
       <use style="stroke:#000000;stroke-width:0.8;" x="54" xlink:href="#m9af1ebaad5" y="252"/>
      </g>
     </g>
     <g id="text_7">
      <!-- $\mathdefault{0}$ -->
      <g transform="translate(40.171511 256.842938)scale(0.14 -0.14)">
       <use transform="scale(0.996264)" xlink:href="#CMR17-48"/>
      </g>
     </g>
    </g>
    <g id="ytick_2">
     <g id="line2d_13">
      <path clip-path="url(#p19f91c09c9)" d="M 54 215.020408 
L 388.8 215.020408 
" style="fill:none;stroke:#b0b0b0;stroke-linecap:square;stroke-width:0.8;"/>
     </g>
     <g id="line2d_14">
      <g>
       <use style="stroke:#000000;stroke-width:0.8;" x="54" xlink:href="#m9af1ebaad5" y="215.020408"/>
      </g>
     </g>
     <g id="text_8">
      <!-- $\mathdefault{5}$ -->
      <g transform="translate(40.171511 219.863346)scale(0.14 -0.14)">
       <use transform="scale(0.996264)" xlink:href="#CMR17-53"/>
      </g>
     </g>
    </g>
    <g id="ytick_3">
     <g id="line2d_15">
      <path clip-path="url(#p19f91c09c9)" d="M 54 178.040816 
L 388.8 178.040816 
" style="fill:none;stroke:#b0b0b0;stroke-linecap:square;stroke-width:0.8;"/>
     </g>
     <g id="line2d_16">
      <g>
       <use style="stroke:#000000;stroke-width:0.8;" x="54" xlink:href="#m9af1ebaad5" y="178.040816"/>
      </g>
     </g>
     <g id="text_9">
      <!-- $\mathdefault{10}$ -->
      <g transform="translate(33.343023 182.883755)scale(0.14 -0.14)">
       <use transform="scale(0.996264)" xlink:href="#CMR17-49"/>
       <use transform="translate(45.690477 0)scale(0.996264)" xlink:href="#CMR17-48"/>
      </g>
     </g>
    </g>
    <g id="ytick_4">
     <g id="line2d_17">
      <path clip-path="url(#p19f91c09c9)" d="M 54 141.061224 
L 388.8 141.061224 
" style="fill:none;stroke:#b0b0b0;stroke-linecap:square;stroke-width:0.8;"/>
     </g>
     <g id="line2d_18">
      <g>
       <use style="stroke:#000000;stroke-width:0.8;" x="54" xlink:href="#m9af1ebaad5" y="141.061224"/>
      </g>
     </g>
     <g id="text_10">
      <!-- $\mathdefault{15}$ -->
      <g transform="translate(33.343023 145.904163)scale(0.14 -0.14)">
       <use transform="scale(0.996264)" xlink:href="#CMR17-49"/>
       <use transform="translate(45.690477 0)scale(0.996264)" xlink:href="#CMR17-53"/>
      </g>
     </g>
    </g>
    <g id="ytick_5">
     <g id="line2d_19">
      <path clip-path="url(#p19f91c09c9)" d="M 54 104.081633 
L 388.8 104.081633 
" style="fill:none;stroke:#b0b0b0;stroke-linecap:square;stroke-width:0.8;"/>
     </g>
     <g id="line2d_20">
      <g>
       <use style="stroke:#000000;stroke-width:0.8;" x="54" xlink:href="#m9af1ebaad5" y="104.081633"/>
      </g>
     </g>
     <g id="text_11">
      <!-- $\mathdefault{20}$ -->
      <g transform="translate(33.343023 108.924571)scale(0.14 -0.14)">
       <use transform="scale(0.996264)" xlink:href="#CMR17-50"/>
       <use transform="translate(45.690477 0)scale(0.996264)" xlink:href="#CMR17-48"/>
      </g>
     </g>
    </g>
    <g id="ytick_6">
     <g id="line2d_21">
      <path clip-path="url(#p19f91c09c9)" d="M 54 67.102041 
L 388.8 67.102041 
" style="fill:none;stroke:#b0b0b0;stroke-linecap:square;stroke-width:0.8;"/>
     </g>
     <g id="line2d_22">
      <g>
       <use style="stroke:#000000;stroke-width:0.8;" x="54" xlink:href="#m9af1ebaad5" y="67.102041"/>
      </g>
     </g>
     <g id="text_12">
      <!-- $\mathdefault{25}$ -->
      <g transform="translate(33.343023 71.944979)scale(0.14 -0.14)">
       <use transform="scale(0.996264)" xlink:href="#CMR17-50"/>
       <use transform="translate(45.690477 0)scale(0.996264)" xlink:href="#CMR17-53"/>
      </g>
     </g>
    </g>
    <g id="text_13">
     <!-- Anzahl -->
     <g transform="translate(26.243547 167.339534)rotate(-90)scale(0.16 -0.16)">
      <defs>
       <path d="M 36.296875 69.390625 
C 35.796875 70.6875 35.59375 71 34.59375 71 
C 33.59375 71 33.40625 70.6875 32.90625 69.390625 
L 11.703125 9.0625 
C 9.796875 3.6875 5.796875 2.59375 2.296875 2.59375 
L 2.296875 0 
C 4.09375 0.1875 8.09375 0.1875 10 0.1875 
C 12.5 0.1875 16.5 0.1875 18.90625 0 
L 18.90625 2.59375 
C 14.203125 2.796875 13.5 5.96875 13.5 7.171875 
C 13.5 8.0625 13.703125 8.5625 13.90625 9.15625 
L 19.203125 24 
L 45.40625 24 
L 51.40625 7.078125 
C 51.90625 5.875 51.90625 5.671875 51.90625 5.28125 
C 51.90625 2.59375 47.59375 2.59375 45.703125 2.59375 
L 45.703125 0 
C 48.59375 0.1875 53.796875 0.1875 56.90625 0.1875 
C 59.5 0.1875 64.5 0.1875 66.90625 0 
L 66.90625 2.59375 
C 61.59375 2.59375 59.796875 2.59375 58.5 6.28125 
z
M 32.296875 61.3125 
L 44.5 26.59375 
L 20.09375 26.59375 
z
" id="CMR17-65"/>
       <path d="M 41.5 30.53125 
C 41.5 35.65625 40.5 44 28.703125 44 
C 20.796875 44 16.703125 37.875 15.203125 33.84375 
L 15.09375 33.84375 
L 15.09375 44 
L 3.296875 42.890625 
L 3.296875 40.28125 
C 9.203125 40.28125 10.09375 39.6875 10.09375 34.859375 
L 10.09375 6.921875 
C 10.09375 3.09375 9.703125 2.59375 3.296875 2.59375 
L 3.296875 0 
C 5.703125 0.1875 10.09375 0.1875 12.703125 0.1875 
C 15.296875 0.1875 19.796875 0.1875 22.203125 0 
L 22.203125 2.59375 
C 15.796875 2.59375 15.40625 3 15.40625 6.921875 
L 15.40625 26.21875 
C 15.40625 35.453125 21 42.390625 28 42.390625 
C 35.40625 42.390625 36.203125 35.765625 36.203125 30.9375 
L 36.203125 6.921875 
C 36.203125 3.09375 35.796875 2.59375 29.40625 2.59375 
L 29.40625 0 
C 31.796875 0.1875 36.203125 0.1875 38.796875 0.1875 
C 41.40625 0.1875 45.90625 0.1875 48.296875 0 
L 48.296875 2.59375 
C 41.90625 2.59375 41.5 3 41.5 6.921875 
z
" id="CMR17-110"/>
       <path d="M 36.09375 40.6875 
C 36.90625 41.6875 36.90625 41.890625 36.90625 42.09375 
C 36.90625 43 36.5 43 34.703125 43 
L 4.296875 43 
L 3.296875 27.5 
L 5.09375 27.5 
C 5.796875 37.1875 6.90625 41.390625 18.40625 41.390625 
L 30.59375 41.390625 
L 2 1.5 
C 2 0.09375 2.09375 0 4.203125 0 
L 35.796875 0 
L 37.203125 18 
L 35.40625 18 
C 34.59375 6.890625 33.296875 1.796875 21.09375 1.796875 
L 8.296875 1.796875 
z
" id="CMR17-122"/>
       <path d="M 36 25.875 
C 36 32 36 35.546875 31.796875 39.59375 
C 28.09375 42.984375 23.796875 44 20.40625 44 
C 12.5 44 6.796875 37.625 6.796875 30.890625 
C 6.796875 27.1875 9.796875 27 10.40625 27 
C 11.703125 27 14 27.796875 14 30.59375 
C 14 33.09375 12.09375 34.1875 10.40625 34.1875 
C 10 34.1875 9.5 34.09375 9.203125 34 
C 11.296875 40.53125 16.703125 42.390625 20.203125 42.390625 
C 25.203125 42.390625 30.703125 37.828125 30.703125 29.296875 
L 30.703125 25.5 
C 24.796875 25.296875 17.703125 24.5 12.09375 21.453125 
C 5.796875 17.921875 4 12.84375 4 9 
C 4 1.203125 13 -1 18.296875 -1 
C 23.796875 -1 28.90625 2.109375 31.09375 7.890625 
C 31.296875 3.421875 34.09375 -0.609375 38.5 -0.609375 
C 40.59375 -0.609375 45.90625 0.796875 45.90625 8.796875 
L 45.90625 14.46875 
L 44.09375 14.46875 
L 44.09375 8.703125 
C 44.09375 2.515625 41.40625 1.703125 40.09375 1.703125 
C 36 1.703125 36 6.96875 36 11.4375 
z
M 30.703125 13.859375 
C 30.703125 5.046875 24.5 0.59375 19 0.59375 
C 14 0.59375 10.09375 4.34375 10.09375 9 
C 10.09375 12.046875 11.40625 17.40625 17.203125 20.65625 
C 22 23.390625 27.5 23.796875 30.703125 24 
z
" id="CMR17-97"/>
       <path d="M 41.5 30.53125 
C 41.5 35.65625 40.5 44 28.703125 44 
C 20.5 44 16.5 37.375 15.296875 34.046875 
L 15.203125 34.046875 
L 15.203125 69 
L 3.296875 67.890625 
L 3.296875 65.296875 
C 9.203125 65.296875 10.09375 64.703125 10.09375 60.046875 
L 10.09375 6.921875 
C 10.09375 3.09375 9.703125 2.59375 3.296875 2.59375 
L 3.296875 0 
C 5.703125 0.1875 10.09375 0.1875 12.703125 0.1875 
C 15.296875 0.1875 19.796875 0.1875 22.203125 0 
L 22.203125 2.59375 
C 15.796875 2.59375 15.40625 3 15.40625 6.921875 
L 15.40625 26.21875 
C 15.40625 35.453125 21 42.390625 28 42.390625 
C 35.40625 42.390625 36.203125 35.765625 36.203125 30.9375 
L 36.203125 6.921875 
C 36.203125 3.09375 35.796875 2.59375 29.40625 2.59375 
L 29.40625 0 
C 31.796875 0.1875 36.203125 0.1875 38.796875 0.1875 
C 41.40625 0.1875 45.90625 0.1875 48.296875 0 
L 48.296875 2.59375 
C 41.90625 2.59375 41.5 3 41.5 6.921875 
z
" id="CMR17-104"/>
       <path d="M 15.296875 69 
L 3.40625 67.890625 
L 3.40625 65.296875 
C 9.296875 65.296875 10.203125 64.703125 10.203125 59.921875 
L 10.203125 6.859375 
C 10.203125 3.09375 9.796875 2.59375 3.40625 2.59375 
L 3.40625 0 
C 5.796875 0.1875 10.203125 0.1875 12.703125 0.1875 
C 15.296875 0.1875 19.703125 0.1875 22.09375 0 
L 22.09375 2.59375 
C 15.703125 2.59375 15.296875 2.984375 15.296875 6.859375 
z
" id="CMR17-108"/>
      </defs>
      <use transform="scale(0.996264)" xlink:href="#CMR17-65"/>
      <use transform="translate(69.07243 0)scale(0.996264)" xlink:href="#CMR17-110"/>
      <use transform="translate(119.9678 0)scale(0.996264)" xlink:href="#CMR17-122"/>
      <use transform="translate(160.45346 0)scale(0.996264)" xlink:href="#CMR17-97"/>
      <use transform="translate(206.143937 0)scale(0.996264)" xlink:href="#CMR17-104"/>
      <use transform="translate(257.039307 0)scale(0.996264)" xlink:href="#CMR17-108"/>
     </g>
    </g>
   </g>
   <g id="patch_58">
    <path d="M 54 252 
L 54 34.56 
" style="fill:none;stroke:#000000;stroke-linecap:square;stroke-linejoin:miter;stroke-width:0.8;"/>
   </g>
   <g id="patch_59">
    <path d="M 388.8 252 
L 388.8 34.56 
" style="fill:none;stroke:#000000;stroke-linecap:square;stroke-linejoin:miter;stroke-width:0.8;"/>
   </g>
   <g id="patch_60">
    <path d="M 54 252 
L 388.8 252 
" style="fill:none;stroke:#000000;stroke-linecap:square;stroke-linejoin:miter;stroke-width:0.8;"/>
   </g>
   <g id="patch_61">
    <path d="M 54 34.56 
L 388.8 34.56 
" style="fill:none;stroke:#000000;stroke-linecap:square;stroke-linejoin:miter;stroke-width:0.8;"/>
   </g>
   <g id="text_14">
    <!-- PHQ-Verteilung - männlich -->
    <g transform="translate(127.650661 28.56)scale(0.16 -0.16)">
     <defs>
      <path d="M 59 58.78125 
C 59.90625 60.984375 61.5 65.296875 68.203125 65.390625 
L 68.203125 68 
C 65.90625 67.796875 63.296875 67.796875 60.796875 67.796875 
C 58.40625 67.796875 54.296875 67.796875 52 68 
L 52 65.390625 
C 57 65.09375 57.203125 61.59375 57.203125 60.984375 
C 57.203125 59.890625 56.90625 59.1875 56.59375 58.390625 
L 36.90625 7 
L 16.296875 60.984375 
C 16 61.6875 15.796875 62.1875 15.796875 62.6875 
C 15.796875 65.390625 19.796875 65.390625 21.90625 65.390625 
L 21.90625 68 
C 18.703125 67.796875 14 67.796875 10.703125 67.796875 
C 8.09375 67.796875 3.40625 67.796875 1 68 
L 1 65.390625 
C 6.796875 65.390625 7.90625 65 9.09375 61.796875 
L 32.90625 -0.40625 
C 33.40625 -1.8125 33.5 -2 34.59375 -2 
C 35.703125 -2 35.796875 -1.8125 36.296875 -0.40625 
z
" id="CMR17-86"/>
      <path d="M 15.5 61.890625 
C 15.5 64.09375 13.703125 66 11.40625 66 
C 9.203125 66 7.296875 64.1875 7.296875 61.890625 
C 7.296875 59.6875 9.09375 57.796875 11.40625 57.796875 
C 13.59375 57.796875 15.5 59.59375 15.5 61.890625 
z
M 3.796875 42.890625 
L 3.796875 40.296875 
C 9.40625 40.296875 10.203125 39.6875 10.203125 34.859375 
L 10.203125 6.921875 
C 10.203125 3.09375 9.796875 2.59375 3.40625 2.59375 
L 3.40625 0 
C 5.796875 0.1875 10.09375 0.1875 12.59375 0.1875 
C 15 0.1875 19.09375 0.1875 21.40625 0 
L 21.40625 2.59375 
C 15.5 2.59375 15.296875 3.203125 15.296875 6.8125 
L 15.296875 44 
z
" id="CMR17-105"/>
      <path d="M 29.40625 42.890625 
L 29.40625 40.296875 
C 35.296875 40.296875 36.203125 39.6875 36.203125 34.828125 
L 36.203125 16.453125 
C 36.203125 7.96875 31.703125 0.59375 24.296875 0.59375 
C 16.09375 0.59375 15.40625 5.546875 15.40625 10.796875 
L 15.40625 44 
L 3.296875 42.890625 
L 3.296875 40.296875 
C 7.296875 40.296875 10 40.296875 10.09375 36.25 
L 10.09375 16.859375 
C 10.09375 10.09375 10.09375 5.75 12.703125 2.921875 
C 14 1.609375 16.5 -1 23.703125 -1 
C 32.203125 -1 35.5 6.25 36.296875 8.375 
L 36.40625 8.375 
L 36.40625 -1 
L 48.296875 -0.203125 
L 48.296875 2.40625 
C 42.40625 2.40625 41.5 3.015625 41.5 7.859375 
L 41.5 44 
z
" id="CMR17-117"/>
      <path d="M 11.09375 18.203125 
C 13 16.6875 16.296875 15 20.296875 15 
C 28.203125 15 35 21.234375 35 29.609375 
C 35 32.234375 34.203125 36.265625 31.203125 39.390625 
C 34 42.390625 38.09375 43.390625 40.40625 43.390625 
C 40.796875 43.390625 41.40625 43.390625 41.90625 43.09375 
C 41.5 42.984375 40.59375 42.59375 40.59375 40.984375 
C 40.59375 39.6875 41.5 38.796875 42.796875 38.796875 
C 44.296875 38.796875 45.09375 39.796875 45.09375 41.09375 
C 45.09375 42.984375 43.59375 45 40.40625 45 
C 36.40625 45 32.90625 43.09375 30.09375 40.484375 
C 27.09375 43.1875 23.5 44.1875 20.296875 44.1875 
C 12.40625 44.1875 5.59375 37.984375 5.59375 29.609375 
C 5.59375 23.859375 8.90625 20.21875 9.90625 19.21875 
C 6.90625 15.6875 6.90625 11.59375 6.90625 11.09375 
C 6.90625 8.5 7.90625 4.6875 11.296875 2.59375 
C 6.09375 1.28125 2 -2.875 2 -8.078125 
C 2 -15.5625 11.5 -21 22.90625 -21 
C 33.90625 -21 43.796875 -15.765625 43.796875 -7.96875 
C 43.796875 6 29 6 21.296875 6 
C 19 6 14.90625 6 14.40625 6.09375 
C 11.296875 6.59375 9.203125 9.390625 9.203125 12.890625 
C 9.203125 13.796875 9.203125 16 11.09375 18.203125 
z
M 20.296875 16.6875 
C 11.5 16.6875 11.5 27.59375 11.5 29.609375 
C 11.5 31.625 11.5 42.484375 20.296875 42.484375 
C 29.09375 42.484375 29.09375 31.625 29.09375 29.609375 
C 29.09375 27.59375 29.09375 16.6875 20.296875 16.6875 
z
M 22.90625 -19.3125 
C 12.90625 -19.3125 6 -13.796875 6 -8.078125 
C 6 -4.859375 7.703125 -1.84375 9.90625 -0.171875 
C 12.40625 1.59375 13.40625 1.59375 20.203125 1.59375 
C 28.40625 1.59375 39.796875 1.59375 39.796875 -8.078125 
C 39.796875 -13.796875 32.90625 -19.3125 22.90625 -19.3125 
z
" id="CMR17-103"/>
      <path d="M 67.59375 30.53125 
C 67.59375 35.5625 66.703125 44 54.796875 44 
C 48 44 43.296875 39.375 41.5 33.953125 
L 41.40625 33.953125 
C 40.203125 42.1875 34.296875 44 28.703125 44 
C 20.796875 44 16.703125 37.875 15.203125 33.84375 
L 15.09375 33.84375 
L 15.09375 44 
L 3.296875 42.890625 
L 3.296875 40.28125 
C 9.203125 40.28125 10.09375 39.6875 10.09375 34.859375 
L 10.09375 6.921875 
C 10.09375 3.09375 9.703125 2.59375 3.296875 2.59375 
L 3.296875 0 
C 5.703125 0.1875 10.09375 0.1875 12.703125 0.1875 
C 15.296875 0.1875 19.796875 0.1875 22.203125 0 
L 22.203125 2.59375 
C 15.796875 2.59375 15.40625 3 15.40625 6.921875 
L 15.40625 26.21875 
C 15.40625 35.453125 21 42.390625 28 42.390625 
C 35.40625 42.390625 36.203125 35.765625 36.203125 30.9375 
L 36.203125 6.921875 
C 36.203125 3.09375 35.796875 2.59375 29.40625 2.59375 
L 29.40625 0 
C 31.796875 0.1875 36.203125 0.1875 38.796875 0.1875 
C 41.40625 0.1875 45.90625 0.1875 48.296875 0 
L 48.296875 2.59375 
C 41.90625 2.59375 41.5 3 41.5 6.921875 
L 41.5 26.21875 
C 41.5 35.453125 47.09375 42.390625 54.09375 42.390625 
C 61.5 42.390625 62.296875 35.765625 62.296875 30.9375 
L 62.296875 6.921875 
C 62.296875 3.09375 61.90625 2.59375 55.5 2.59375 
L 55.5 0 
C 57.90625 0.1875 62.296875 0.1875 64.90625 0.1875 
C 67.5 0.1875 72 0.1875 74.40625 0 
L 74.40625 2.59375 
C 68 2.59375 67.59375 3 67.59375 6.921875 
z
" id="CMR17-109"/>
      <path d="M 17.703125 61.890625 
C 17.703125 64.390625 15.703125 65.890625 13.796875 65.890625 
C 11.203125 65.890625 9.796875 63.6875 9.796875 62 
C 9.796875 60 11.40625 58 13.796875 58 
C 15.90625 58 17.703125 59.6875 17.703125 61.890625 
z
M 36 61.890625 
C 36 63.890625 34.40625 65.890625 32 65.890625 
C 29.90625 65.890625 28.09375 64.1875 28.09375 62 
C 28.09375 59.5 30.09375 58 32 58 
C 34.59375 58 36 60.1875 36 61.890625 
z
" id="CMR17-127"/>
      <path d="M 34.90625 35 
C 33 35 30.203125 35 30.203125 31.484375 
C 30.203125 28.6875 32.5 27.890625 33.796875 27.890625 
C 34.5 27.890625 37.40625 28.1875 37.40625 31.6875 
C 37.40625 38.6875 30.59375 44 22.90625 44 
C 12.296875 44 3.296875 34.390625 3.296875 21.546875 
C 3.296875 8.140625 12.703125 -1 22.90625 -1 
C 35.296875 -1 38.40625 10.5625 38.40625 11.671875 
C 38.40625 12.078125 38.296875 12.375 37.59375 12.375 
C 36.90625 12.375 36.796875 12.28125 36.40625 10.96875 
C 33.796875 2.8125 28.09375 0.796875 23.796875 0.796875 
C 17.40625 0.796875 9.703125 6.734375 9.703125 21.640625 
C 9.703125 36.84375 17.09375 42.1875 23 42.1875 
C 26.90625 42.1875 32.703125 40.34375 34.90625 35 
z
" id="CMR17-99"/>
     </defs>
     <use transform="scale(0.996264)" xlink:href="#CMR17-80"/>
     <use transform="translate(62.586301 0)scale(0.996264)" xlink:href="#CMR17-72"/>
     <use transform="translate(131.65873 0)scale(0.996264)" xlink:href="#CMR17-81"/>
     <use transform="translate(203.373519 0)scale(0.996264)" xlink:href="#CMR17-45"/>
     <use transform="translate(233.449485 0)scale(0.996264)" xlink:href="#CMR17-86"/>
     <use transform="translate(294.71466 0)scale(0.996264)" xlink:href="#CMR17-101"/>
     <use transform="translate(335.20032 0)scale(0.996264)" xlink:href="#CMR17-114"/>
     <use transform="translate(370.481088 0)scale(0.996264)" xlink:href="#CMR17-116"/>
     <use transform="translate(405.761856 0)scale(0.996264)" xlink:href="#CMR17-101"/>
     <use transform="translate(446.247516 0)scale(0.996264)" xlink:href="#CMR17-105"/>
     <use transform="translate(471.118575 0)scale(0.996264)" xlink:href="#CMR17-108"/>
     <use transform="translate(495.989633 0)scale(0.996264)" xlink:href="#CMR17-117"/>
     <use transform="translate(546.885003 0)scale(0.996264)" xlink:href="#CMR17-110"/>
     <use transform="translate(597.780373 0)scale(0.996264)" xlink:href="#CMR17-103"/>
     <use transform="translate(673.546816 0)scale(0.996264)" xlink:href="#CMR17-45"/>
     <use transform="translate(733.698749 0)scale(0.996264)" xlink:href="#CMR17-109"/>
     <use transform="translate(810.618339 0)scale(0.996264)" xlink:href="#CMR17-127"/>
     <use transform="translate(810.618339 0)scale(0.996264)" xlink:href="#CMR17-97"/>
     <use transform="translate(856.308816 0)scale(0.996264)" xlink:href="#CMR17-110"/>
     <use transform="translate(907.204185 0)scale(0.996264)" xlink:href="#CMR17-110"/>
     <use transform="translate(958.099555 0)scale(0.996264)" xlink:href="#CMR17-108"/>
     <use transform="translate(982.970614 0)scale(0.996264)" xlink:href="#CMR17-105"/>
     <use transform="translate(1007.841672 0)scale(0.996264)" xlink:href="#CMR17-99"/>
     <use transform="translate(1045.724879 0)scale(0.996264)" xlink:href="#CMR17-104"/>
    </g>
   </g>
  </g>
 </g>
 <defs>
  <clipPath id="p19f91c09c9">
   <rect height="217.44" width="334.8" x="54" y="34.56"/>
  </clipPath>
 </defs>
</svg>
